<?xml version="1.0" encoding="utf-8"?>
<!-- Generator: Adobe Illustrator 19.1.0, SVG Export Plug-In . SVG Version: 6.00 Build 0)  -->
<!DOCTYPE svg PUBLIC "-//W3C//DTD SVG 1.1//EN" "http://www.w3.org/Graphics/SVG/1.1/DTD/svg11.dtd">
<svg version="1.1" id="Layer_1" xmlns="http://www.w3.org/2000/svg" xmlns:xlink="http://www.w3.org/1999/xlink" x="0px" y="0px"
	 width="360px" height="360px" viewBox="0 0 360 360" style="enable-background:new 0 0 360 360;" xml:space="preserve">
<style type="text/css">
	.st0{fill:#47C3D2;}
	.st1{fill:#FFFFFF;stroke:#FFFFFF;stroke-width:3;stroke-miterlimit:10;}
</style>
<path class="st0" d="M179.5,21.8c87.5,0,158.5,71,158.5,158.5s-71,158.5-158.5,158.5S21,267.9,21,180.3S92,21.8,179.5,21.8"/>
<g>
	<path class="st1" d="M140.7,275.6h45.9c44,0,61.4-21.3,61.4-49.8c0-31-19.4-52.4-56.2-52.4h-51.1v-11.6h33
		c42.7,0,62.7-14.9,62.7-49.1c0-27.2-19.4-44-52-44c-32.6,0-56.6,18.7-56.6,56.2v162.3h-13.6V133.4c0-52.4,25.9-76.3,71.8-76.3
		c44.6,0,64.6,26.5,64.6,55.6c0,22.6-7.8,44.6-33.9,53.3v0.6c19.7,0.3,45.6,24.2,45.6,59.8c0,33-22,60.8-67.9,60.8h-53.7V275.6z"/>
</g>
<g>
</g>
<g>
</g>
<g>
</g>
<g>
</g>
<g>
</g>
<g>
</g>
<g>
</g>
<g>
</g>
<g>
</g>
<g>
</g>
<g>
</g>
<g>
</g>
<g>
</g>
<g>
</g>
<g>
</g>
</svg>
